<?xml version="1.0" encoding="utf-8"?><svg xmlns="http://www.w3.org/2000/svg" xmlns:xlink="http://www.w3.org/1999/xlink"><symbol viewBox="0 -53 512 512" id="mouth" xmlns="http://www.w3.org/2000/svg"><path d="M329.145 0s-27.426 0-45.72 8.828C265.138 17.656 256 17.656 256 17.656s-9.145 0-27.426-8.828C210.29 0 182.855 0 182.855 0 100.575 0 0 185.379 0 185.379v8.828l7.281 14.063c5.211 10.054 9.703 20.417 13.852 30.921 4.238 10.707 9.879 20.887 15.625 30.844 11.484 19.871 23.578 41.086 37.879 58.942 32.996 41.207 83.675 63.832 134.761 72.855 18.793 3.32 37.934 4.68 57.008 3.98 52.465-1.898 108.485-18.527 148.649-53.335 8.394-7.274 16.086-15.38 22.777-24.25 7.414-9.832 13.93-20.516 20.594-30.844 6.312-9.781 12.457-19.684 18.219-29.801 5.226-9.172 10.328-18.547 14.214-28.383 4.149-10.504 8.649-20.867 13.848-30.922l7.293-14.07v-8.828S411.426 0 329.145 0zm0 0"/><path d="M306.23 76.941c-8.132 3.012-16.562 5.13-24.976 7.23l-16.426 4.106h-17.656l-16.426-4.105c-8.414-2.102-16.844-4.219-24.976-7.23C110.027 41.5 0 185.378 0 185.378l28.523 30.851c11.094 12.008 21 25.02 30.657 38.208 32.511 44.375 82.28 73.675 137.57 79.464 33.59 3.524 59.25 1.547 59.25 1.547s25.66 1.977 59.242-1.547c55.285-5.789 105.059-35.09 137.57-79.465 9.657-13.187 19.56-26.199 30.657-38.207L512 185.38S401.973 41.5 306.23 76.94zm0 0"/><path d="M404.719 259.293l1.71-1.14C306.16 187.698 256 237.796 256 237.796c-86.652-39.988-138.047-4.5-158.04 15.281l9.321 6.215c4.414 2.937-5.633 18.07-7.308 23.102l-2.871 8.617c3.101-9.297 25.328-12.254 34.43-8.617l13.081 5.234c8.114 3.238 12.457 12.094 10.055 20.496l-1.219 4.285c3.082-10.773 13.903-17.375 24.895-15.176l5.094 1.016c11.042 2.207 18.519 12.57 17.117 23.754l.715-5.695c1.003-8.075 7.882-25.547 16.023-25.547l22.562 15c8.915 0 16.145 7.23 16.145 16.144 0-8.914 7.23-16.144 16.145-16.144h22.562c8.148 0 15.02 6.062 16.023 14.14l.715 5.696c-1.394-11.184 6.075-21.54 17.118-23.758l5.093-1.012 23.668 10.89c-2.402-8.394 1.942-17.25 10.055-20.495l13.09-8.828c9.101-3.637 31.328-.68 34.43 8.617l-2.872-8.617c-1.675-5.032-11.722-20.165-7.308-23.102zm0 0"/><path d="M333.656 286.367l-5.094 1.016c-11.042 2.207-18.519 12.57-17.117 23.754l-.715-5.684c-1.003-8.078-7.875-14.144-16.023-14.144h-22.562c-8.915 0-16.145 7.23-16.145 16.148 0-8.918-7.23-16.148-16.145-16.148h-22.562c-8.14 0-15.02 6.066-16.023 14.144l-.715 5.692c1.394-11.184-6.075-21.54-17.118-23.754l-5.093-1.016c-10.98-2.2-21.813 4.406-24.895 15.176l1.219-4.281c2.402-8.395-1.941-17.25-10.055-20.5l-13.082-5.235c-9.101-3.637-19.386 1.133-22.492 10.438l2.867-8.618a11.76 11.76 0 0 0-4.633-13.507l-13.992-9.328c-2.816-1.872-6.601-1.227-8.625 1.472l-13.18 17.567a198.171 198.171 0 0 0 32.098 28.796c13.567 9.727 28.344 17.735 43.996 23.739 15.926 6.105 32.743 10.176 50.114 11.906h.011c33.121 3.371 58.305 1.45 58.305 1.45s25.184 1.921 58.297-1.458h.008c17.367-1.73 34.183-5.8 50.117-11.91l-5.871-20.531c-3.074-10.77-13.903-17.375-24.895-15.184zm0 0"/><path d="M427.336 251.992c-2.031-2.699-5.82-3.355-8.625-1.472l-13.992 9.328a11.767 11.767 0 0 0-4.637 13.507l2.871 8.618c-3.098-9.297-13.39-14.075-22.484-10.438l-13.09 5.235c-8.106 3.242-12.457 12.093-10.055 20.5l7.086 24.824a195.844 195.844 0 0 0 44-23.739 197.761 197.761 0 0 0 32.094-28.796zm14.043-137.234C427.8 103.91 416.484 96.785 400.703 88.62c-19.183-9.922-39.512-16.64-59.887-17.195-11.59-.32-23.191 1.297-34.586 5.515-8.132 3.012-16.562 5.13-24.976 7.23l-16.426 4.106h-17.656l-16.426-4.105c-8.414-2.102-16.844-4.219-24.976-7.23-11.395-4.22-22.997-5.837-34.586-5.516-20.375.554-40.696 7.261-59.887 17.195-15.781 8.164-27.098 15.29-40.676 26.137-15.96 12.562-31.683 27.472-42.894 39.082l19.562 24.441a11.255 11.255 0 0 0 13.809 3.04l18.12-9.067a11.239 11.239 0 0 0 5.5-14l.16-1.14c3.364 5.015 9.579 7.53 15.11 4.757l15.16-7.574a12.368 12.368 0 0 0 6.594-13.469l-2.05-10.223c2.183 10.856 12.581 18.024 23.5 16.208l14.824-2.473c10.484-1.746 17.91-11.219 17.09-21.82l-1.133-14.645c1.406 18.254 17.656 31.707 35.851 29.684l17.38-1.93c16.394-1.84 28.796-15.7 28.796-32.188 0 16.489 12.402 30.348 28.797 32.168l17.379 1.934c18.195 2.02 34.437-11.434 35.851-29.688l-1.132 14.645c-.82 10.602 6.605 20.074 17.09 21.82l14.824 2.473c10.925 1.82 21.316-5.348 23.5-16.207l-2.051 10.223a12.353 12.353 0 0 0 6.594 13.472l15.16 7.574c6.355 3.176 13.61-.601 16.41-7.132l-1.14 3.511c-2.02 5.387.35 11.434 5.5 14l18.12 9.067a11.24 11.24 0 0 0 13.809-3.035l19.562-24.446c-11.21-11.59-26.933-26.5-42.894-39.062zm0 0"/><path d="M256 103.441V88.277h-8.828l-16.426-4.105c-8.414-2.102-16.844-4.219-24.976-7.23-11.395-4.22-22.997-5.837-34.586-5.516l2.8 36.43c1.403 18.253 17.653 31.707 35.848 29.687l17.383-1.934C243.598 133.79 256 119.941 256 103.441zm0 0M111.297 88.621l8.387 41.957c2.171 10.867 12.582 18.043 23.507 16.227l14.825-2.473c10.484-1.75 17.91-11.223 17.09-21.824l-3.93-51.082c-20.367.554-40.696 7.273-59.88 17.195zm0 0"/><path d="M83.578 154.73c2.8 6.532 10.055 10.31 16.41 7.133l15.16-7.574a12.37 12.37 0 0 0 6.594-13.473l-10.445-52.195c-15.781 8.164-27.098 15.29-40.676 26.137zm0 0"/><path d="M79.219 172.254a11.25 11.25 0 0 0 5.5-14.012L70.62 114.758C54.66 127.32 38.937 142.23 27.726 153.84l19.562 24.441a11.255 11.255 0 0 0 13.809 3.04zM256 103.441V88.277h8.828l16.426-4.105c8.414-2.102 16.844-4.219 24.976-7.23 11.395-4.22 22.997-5.837 34.586-5.516l-2.8 36.43c-1.403 18.253-17.653 31.707-35.848 29.687l-17.383-1.934C268.402 133.79 256 119.941 256 103.441zm0 0M400.703 88.621l-8.387 41.957c-2.171 10.867-12.582 18.043-23.507 16.227l-14.825-2.473c-10.484-1.75-17.91-11.223-17.09-21.824l3.93-51.082c20.367.554 40.696 7.273 59.88 17.195zm0 0"/><path d="M428.422 154.73c-2.8 6.532-10.055 10.31-16.41 7.133l-15.16-7.574a12.37 12.37 0 0 1-6.594-13.473l10.445-52.195c15.781 8.164 27.098 15.29 40.676 26.137zm0 0"/><path d="M432.781 172.254a11.25 11.25 0 0 1-5.5-14.012l14.098-43.484c15.96 12.562 31.684 27.472 42.894 39.082l-19.562 24.441a11.255 11.255 0 0 1-13.809 3.04zM201.27 305.453l-3.567 28.54c33.113 3.378 58.297 1.456 58.297 1.456v-27.992c0-8.918-7.23-16.148-16.145-16.148h-22.562c-8.148 0-15.02 6.066-16.023 14.144zm0 0"/><path d="M153.45 301.55l-5.872 20.532c15.926 6.11 32.75 10.18 50.117 11.91l.008-.008 2.86-22.847c1.394-11.184-6.075-21.547-17.118-23.754l-5.093-1.016c-10.989-2.191-21.829 4.414-24.903 15.184zm0 0"/><path d="M147.578 322.094l7.09-24.824c2.402-8.395-1.941-17.25-10.055-20.5l-13.082-5.235c-9.101-3.637-19.386 1.133-22.484 10.438l-5.465 16.382a196.53 196.53 0 0 0 43.996 23.739zm0 0"/><path d="M103.582 298.355l8.336-25a11.767 11.767 0 0 0-4.637-13.507L93.29 250.52c-2.816-1.872-6.602-1.227-8.625 1.472l-13.18 17.567a197.95 197.95 0 0 0 32.098 28.796zm207.148 7.098l3.567 28.54C281.184 337.37 256 335.448 256 335.448v-27.992c0-8.918 7.23-16.148 16.145-16.148h22.562c8.148 0 15.02 6.066 16.023 14.144zm0 0"/><path d="M358.55 301.55l5.872 20.532c-15.926 6.11-32.75 10.18-50.117 11.91l-.008-.008-2.86-22.847c-1.394-11.184 6.075-21.547 17.118-23.754l5.093-1.016c10.989-2.191 21.829 4.414 24.903 15.184zm0 0"/><path d="M364.422 322.094l-7.09-24.824c-2.402-8.395 1.941-17.25 10.055-20.5l13.082-5.235c9.101-3.637 19.386 1.133 22.484 10.438l5.465 16.382a196.53 196.53 0 0 1-43.996 23.739zm0 0"/><path d="M408.418 298.355l-8.336-25a11.767 11.767 0 0 1 4.637-13.507l13.992-9.328c2.816-1.872 6.602-1.227 8.625 1.472l13.18 17.567a197.95 197.95 0 0 1-32.098 28.796zm0 0M245.82 233.523l20.766 27.766a8.811 8.811 0 0 0 7.078 3.54 8.752 8.752 0 0 0 5.277-1.759c3.903-2.922 4.707-8.449 1.786-12.347l-14.883-19.891c-6.543 3.691-9.844 6.965-9.844 6.965-3.477-1.606-6.805-2.902-10.18-4.274zm0 0"/></symbol><symbol viewBox="0 0 346.497 346.497" id="pumpkin" xmlns="http://www.w3.org/2000/svg"><path d="M167.249 70.97s4.4-35.6 21.6-49.6 29.2-15.2 29.2-15.2l19.2 20.4s-49.6 15.2-52.8 61.2c-2.8 46.4-17.2-16.8-17.2-16.8z"/><path d="M339.249 144.97c14.8 45.2 5.6 99.2-24.8 140.8-11.6 16.4-25.6 29.2-40.4 37.6-14.8 8.8-30.4 13.2-46 13.2-8 0-16.4-1.2-24.4-4l-2.8-.8-2.4 1.6c-14.4 9.6-34 9.2-48.4-.8l-2.4-1.6-2.8.8c-8.8 3.2-17.6 4.8-26.8 4.8-31.2 0-62.8-18.8-86.4-51.2-30-41.6-39.6-95.6-24.8-140.8 18.8-55.2 60.8-67.2 92.8-67.2 25.2 0 45.2 7.2 45.6 7.2l2.8 1.2 2.4-1.6c14.4-10 34-10.4 48.4-.8l2.4 1.6 2.4-.8c6.4-2 22.8-6.4 42.8-6.4 32.4-.4 74.4 11.6 92.8 67.2z"/><path d="M198.849 333.77l2.4-1.6c-1.2.8-2 1.2-3.2 2 .4 0 .8-.4.8-.4z"/><path d="M201.249 332.17l2.8.8c8 2.4 16 4 24.4 4 15.6 0 31.6-4.8 46-13.2 14.8-8.8 28.4-21.6 40.4-37.6 30-41.6 39.6-95.6 24.8-140.8-18.8-56-60.8-68-92.8-68-20 0-36.8 4.4-42.8 6.4l-2.8.8s47.2 16.8 70.4 52.4c27.2 41.6 42.8 148.8-70.4 195.2z"/><g><path d="M257.249 264.97l-13.6-14.4-44.4 29.2-26-21.6-26 21.6-44.4-29.2-13.6 14.4-44.8-68.4 44.8 28.4 13.6-14.4 44.4 29.2 26-21.6 26 21.6 44.4-29.2 13.6 14.4 44.8-28.4z"/><ellipse cx="237.649" cy="162.17" rx="20.4" ry="32"/><path d="M148.049 184.97s-17.6-30.8-35.2-30.8-35.2 30.8-35.2 30.8c0-30 15.6-53.2 35.2-53.2s35.2 23.2 35.2 53.2z"/></g></symbol><symbol viewBox="0 0 436.145 436.145" id="spinner" xmlns="http://www.w3.org/2000/svg"><path d="M373.706 142.327l-12.068 6.386c22.864 43.204 21.939 94.249-2.471 136.54a158.3 158.3 0 0 1-3.248 5.357l11.537 7.301c1.2-1.898 2.384-3.847 3.533-5.827 26.777-46.391 27.794-102.375 2.717-149.757zM253.853 354.759c-30.435 3.674-60.607-2.516-87.26-17.903-35.208-20.323-59.928-54.874-67.82-94.797l-13.394 2.647c8.655 43.786 35.768 81.683 74.387 103.974 23.752 13.713 50.053 20.765 76.993 20.765 6.216 0 12.469-.375 18.731-1.131l-1.637-13.555zM116.322 118.167l10.672 8.515c33.253-41.677 88.414-61.14 140.532-49.584l2.954-13.331c-57.169-12.675-117.679 8.678-154.158 54.4zm223.339 52.516l-12.547 5.383c12.32 28.725 10.44 60.692-5.161 87.709l11.824 6.827c17.774-30.78 19.92-67.199 5.884-99.919z"/><path d="M243.192 312.597c-19.267 1.215-38.325-3.261-55.115-12.954-21.854-12.617-37.827-32.894-44.978-57.093l-13.094 3.869c8.146 27.573 26.346 50.674 51.244 65.05 17.072 9.856 36.204 14.979 55.731 14.979 2.352 0 4.712-.073 7.072-.225l-.86-13.626zm-87.284-174.535l9.931 9.37c21.576-22.868 53.103-34.01 84.333-29.805l1.821-13.532c-35.581-4.792-71.499 7.906-96.085 33.967z"/><path d="M381.601 95.897c-4.82-17.983-16.353-33.014-32.478-42.322-33.285-19.217-75.996-7.774-95.211 25.508-9.31 16.128-11.783 34.913-6.965 52.893 4.818 17.981 16.353 33.01 32.48 42.318 10.742 6.202 22.663 9.37 34.743 9.37 6.052 0 12.145-.795 18.147-2.405 17.983-4.816 33.014-16.348 42.324-32.473 9.306-16.123 11.779-34.906 6.96-52.889zm-18.786 46.063c-7.485 12.966-19.572 22.238-34.033 26.112-14.461 3.874-29.563 1.884-42.53-5.603-12.967-7.485-22.243-19.57-26.117-34.028-3.874-14.457-1.884-29.563 5.601-42.532 10.37-17.959 29.242-28.008 48.628-28.008a55.752 55.752 0 0 1 27.933 7.497c12.966 7.485 22.24 19.572 26.115 34.033 3.877 14.461 1.889 29.565-5.597 42.529z"/><path d="M331.868 83.471c-8.141-4.7-17.621-5.949-26.697-3.517-9.078 2.432-16.664 8.253-21.362 16.393-4.7 8.136-5.949 17.618-3.517 26.696 2.432 9.079 8.255 16.667 16.393 21.366a34.946 34.946 0 0 0 17.529 4.707c12.167 0 24.018-6.31 30.532-17.585 9.698-16.803 3.923-38.362-12.878-48.06zm1.052 41.233c-5.939 10.281-19.132 13.817-29.409 7.881a21.388 21.388 0 0 1-10.032-13.075 21.382 21.382 0 0 1 2.152-16.335 21.385 21.385 0 0 1 13.071-10.032 21.388 21.388 0 0 1 16.338 2.154c10.279 5.935 13.814 19.127 7.88 29.407zm40.519 181.475c-4.818-17.983-16.352-33.012-32.476-42.322-33.283-19.214-75.994-7.77-95.212 25.515-9.31 16.123-11.783 34.906-6.963 52.89 4.82 17.983 16.352 33.014 32.476 42.322 10.742 6.202 22.661 9.37 34.741 9.37a70.09 70.09 0 0 0 18.149-2.405c17.985-4.818 33.014-16.353 42.322-32.48 9.31-16.124 11.783-34.907 6.963-52.89zm-18.788 46.064c-7.484 12.967-19.569 22.243-34.029 26.117-14.459 3.872-29.565 1.884-42.53-5.601-12.966-7.485-22.24-19.57-26.115-34.031-3.874-14.461-1.886-29.565 5.6-42.53 10.371-17.963 29.245-28.013 48.633-28.013a55.699 55.699 0 0 1 27.926 7.496c12.966 7.487 22.24 19.572 26.115 34.033 3.875 14.46 1.887 29.564-5.6 42.529z"/><path d="M340.098 315.118c-2.432-9.079-8.255-16.666-16.394-21.364-8.139-4.7-17.62-5.949-26.696-3.516-9.078 2.43-16.664 8.253-21.362 16.393-9.699 16.8-3.922 38.359 12.878 48.058a34.966 34.966 0 0 0 17.531 4.705c12.17 0 24.02-6.31 30.527-17.58 4.7-8.138 5.948-17.616 3.516-26.696zm-15.34 19.866c-5.936 10.279-19.128 13.812-29.409 7.88-10.279-5.934-13.814-19.127-7.88-29.408a21.385 21.385 0 0 1 13.071-10.032 21.627 21.627 0 0 1 5.605-.742c3.731 0 7.414.98 10.732 2.894a21.385 21.385 0 0 1 10.032 13.073 21.382 21.382 0 0 1-2.151 16.335zM181.724 167.027c-4.82-17.983-16.353-33.014-32.476-42.322-33.283-19.215-75.996-7.772-95.213 25.513-19.215 33.285-7.769 75.996 25.515 95.213 10.95 6.321 22.912 9.325 34.731 9.323 24.105-.003 47.585-12.505 60.483-34.838 9.307-16.122 11.78-34.906 6.96-52.889zm-18.787 46.063c-15.454 26.764-49.797 35.968-76.561 20.516-26.764-15.452-35.968-49.797-20.518-76.561 10.37-17.961 29.247-28.013 48.633-28.013a55.679 55.679 0 0 1 27.928 7.499c12.966 7.485 22.24 19.572 26.115 34.031 3.877 14.459 1.889 29.563-5.597 42.528z"/><path d="M148.385 175.962c-2.432-9.078-8.253-16.664-16.394-21.362-16.8-9.699-38.361-3.922-48.06 12.878-4.7 8.141-5.948 17.621-3.516 26.697 2.432 9.076 8.255 16.662 16.394 21.361a34.966 34.966 0 0 0 17.531 4.705c12.169 0 24.018-6.31 30.529-17.582 4.698-8.141 5.948-17.621 3.516-26.697zm-15.343 19.87c-5.936 10.281-19.128 13.815-29.409 7.88a21.375 21.375 0 0 1-10.032-13.07 21.391 21.391 0 0 1 2.152-16.338c3.983-6.9 11.235-10.761 18.681-10.761 3.651 0 7.347.928 10.728 2.881a21.375 21.375 0 0 1 10.032 13.07 21.395 21.395 0 0 1-2.152 16.338zm280.379 151.477a6.823 6.823 0 0 0-8.356 4.835c-7.212 27.013-24.375 50.07-51.009 68.528a6.827 6.827 0 1 0 7.775 11.221c29.37-20.354 48.353-46 56.424-76.228a6.824 6.824 0 0 0-4.834-8.356zm16.586 40.958a6.829 6.829 0 0 0-8.354 4.838c-3.232 12.128-10.68 22.096-22.769 30.481a6.826 6.826 0 1 0 7.781 11.217c14.655-10.165 24.136-23.011 28.18-38.183a6.825 6.825 0 0 0-4.838-8.353zM91.549 76.48a6.824 6.824 0 0 0-8.73-4.122c-34.431 12.35-59.989 32.673-75.963 60.406a6.827 6.827 0 0 0 5.908 10.237 6.82 6.82 0 0 0 5.92-3.422c14.314-24.851 37.443-43.145 68.743-54.369a6.825 6.825 0 0 0 4.122-8.73zM47.952 61.714a6.827 6.827 0 0 0-8.731-4.12C22.071 63.748 9.312 73.92 1.299 87.829a6.827 6.827 0 0 0 5.908 10.236 6.819 6.819 0 0 0 5.92-3.42c6.443-11.182 16.486-19.098 30.705-24.201a6.824 6.824 0 0 0 4.12-8.73zM152.899 401.73c-34.601-9.238-64.119-31.194-87.738-65.261a6.826 6.826 0 0 0-11.219 7.779c25.515 36.799 57.624 60.576 95.439 70.673a6.826 6.826 0 0 0 8.354-4.835 6.827 6.827 0 0 0-4.836-8.356zm-51.827 20.992c-15.79-4.219-28.739-13.879-39.586-29.527a6.827 6.827 0 0 0-11.221 7.777c12.59 18.164 28.498 29.92 47.281 34.939a6.785 6.785 0 0 0 1.766.234 6.827 6.827 0 0 0 1.76-13.423zm319.872-342.16c-12.066-33.642-31.928-58.614-59.035-74.223a6.827 6.827 0 0 0-6.813 11.831c24.223 13.949 42.052 36.492 52.995 67a6.825 6.825 0 0 0 8.732 4.121 6.822 6.822 0 0 0 4.121-8.729zm14.412-42.547C429.342 21.244 419.388 8.761 405.773.914c-3.267-1.884-7.441-.761-9.323 2.505s-.761 7.441 2.505 9.324c10.885 6.272 18.589 16.048 23.549 29.88a6.825 6.825 0 0 0 8.732 4.121 6.825 6.825 0 0 0 4.12-8.729z"/></symbol></svg>